<svg xmlns="http://www.w3.org/2000/svg" viewBox="0 0 512 512" fill="#87CEEB">
  <defs>
    <linearGradient id="skyGradient" x1="0%" y1="0%" x2="0%" y2="100%">
      <stop offset="0%" style="stop-color:#87CEEB;stop-opacity:1" />
      <stop offset="100%" style="stop-color:#B6E5F8;stop-opacity:1" />
    </linearGradient>
  </defs>
  <circle cx="256" cy="256" r="256" fill="url(#skyGradient)"/>
  <path d="M256 128c-35.3 0-64 28.7-64 64v64c0 35.3 28.7 64 64 64s64-28.7 64-64v-64c0-35.3-28.7-64-64-64zm-32 192h64v96h-64v-96z" fill="white" opacity="0.9"/>
  <path d="M176 256h-32v-32c0-53 43-96 96-96h32c53 0 96 43 96 96v32h-32v-32c0-35.3-28.7-64-64-64h-32c-35.3 0-64 28.7-64 64v32z" fill="white" opacity="0.7"/>
  <circle cx="256" cy="400" r="16" fill="white"/>
</svg>